# xmcd
# Track frame offsets:
# 150
# 13432
# 25587
# 38267
# 51977
# 65340
# 75755
# 87350
# 97622
# 111020
# 119857
# 130665
# 140397
# 150360
# 164942
# 176865
# 189255
# 200760
# 211387
# 221330
# 235952
# 248570
# 261435
# 273965
#
# Disc length: 3800 seconds
# Revision: 0
# Processed by: cddbd v1.4PL0 Copyright (c) Steve Scherf et al.
# Submitted via: VisiTrax 2.9.5.180 - For more info visit www.synapsa.com
#
DISCID=490ed618
DTITLE=Merle Haggard - I´m A Lonesome Fugitive - Mama Tried
DYEAR=1996
DGENRE=
TTITLE0=I´m Lonesome Fugitive
TTITLE1=All Of Me Belongs To You
TTITLE2=House Of Memories
TTITLE3=Life In Prison
TTITLE4=Whatever Happend To Me
TTITLE5=Dring Up And Be Sombody
TTITLE6=Someone Told My Story
TTITLE7=If You Want To Be My Woman
TTITLE8=Mary´s Mine
TTITLE9=Skid Row
TTITLE10=My Rough And Rowdy Ways
TTITLE11=Mixed Up Mess Of AHeart
TTITLE12=Mama Tried
TTITLE13=Green Green Grass Of Home
TTITLE14=Little Old Wine Drinker Me
TTITLE15=In The Good Old Days (When Times Were Bad )
TTITLE16=I Could Have Gone Right
TTITLE17=I´ll Always Konw
TTITLE18=The Sunny Side Of My Life
TTITLE19=Teach Me To Forget
TTITLE20=Folsome Prison Blues
TTITLE21=Run `Em Off
TTITLE22=You´ll Never Love Me Now
TTITLE23=Too Many Bridges To Cross Over
EXTD=2 orginal Lp on 1 CD
EXTT0=
EXTT1=
EXTT2=
EXTT3=
EXTT4=
EXTT5=
EXTT6=
EXTT7=
EXTT8=
EXTT9=
EXTT10=
EXTT11=
EXTT12=
EXTT13=
EXTT14=
EXTT15=
EXTT16=
EXTT17=
EXTT18=
EXTT19=
EXTT20=
EXTT21=
EXTT22=
EXTT23=
PLAYORDER=
